<svg width="80" height="80" viewBox="0 0 80 80" fill="none" xmlns="http://www.w3.org/2000/svg">
<path d="M40 1.25C18.5925 1.25 1.25 18.595 1.25 40C1.25 61.405 18.595 78.75 40 78.75C61.4075 78.75 78.75 61.405 78.75 40C78.75 18.595 61.405 1.25 40 1.25ZM59.0325 27.7975L52.6725 57.7675C52.2025 59.8925 50.9375 60.4075 49.1725 59.4075L39.485 52.2675L34.8125 56.7675C34.2975 57.2825 33.86 57.72 32.86 57.72L33.5475 47.86L51.5 31.64C52.2825 30.9525 51.3275 30.5625 50.295 31.25L28.1075 45.2175L18.545 42.2325C16.4675 41.5775 16.42 40.155 18.9825 39.155L56.3425 24.7475C58.0775 24.1225 59.5925 25.17 59.03 27.795L59.0325 27.7975Z" fill="#111111"/>
</svg>
