<svg width="26" height="26" viewBox="0 0 26 26" fill="none" xmlns="http://www.w3.org/2000/svg">
<g clip-path="url(#clip0)">
<path d="M24.9914 13.1094L14.3275 2.45103L13.6128 1.73623C13.4499 1.57445 13.2296 1.48364 13.0001 1.48364C12.7705 1.48364 12.5503 1.57445 12.3874 1.73623L1.00871 13.1094C0.841824 13.2756 0.709934 13.4736 0.620821 13.6917C0.0613855 15.0605 1.25067 15 2.28098 15H5.4539V25.1146H20.5463V15H23.744C24.5702 15 25.5103 15 25.5103 14.3568C25.5103 13.8877 25.3254 13.4433 24.9914 13.1094ZM16 25.1146H10V15H16V25.1146Z" fill="#CCCCCC"/>
</g>
<defs>
<clipPath id="clip0">
<rect width="26" height="25" fill="white" transform="translate(0 0.5)"/>
</clipPath>
</defs>
</svg>
