<svg width="58" height="42" viewBox="0 0 58 42" fill="none" xmlns="http://www.w3.org/2000/svg">
<path d="M26.84 6.41992C21.98 6.41992 14.9 8.33992 6.86 11.7599C6.68 11.8199 6.5 11.8799 6.32 11.8199L1.88 11.2799C1.28 11.2199 0.980003 11.6399 0.980003 12.1199V30.1799C0.980003 30.2999 1.04 30.4799 1.1 30.5999C1.28 30.8999 1.58 31.0199 1.88 31.0199L6.62 30.4799C7.04 30.4199 7.46 30.4799 7.88 30.6599C12.32 32.6999 16.76 34.0799 21.08 34.7399C22.94 35.0399 24.68 35.1599 26.3 35.1599C28.22 35.1599 31.04 34.8599 31.94 34.4999C32 34.4999 32.06 34.4399 32.12 34.4999C32.54 34.4999 32.9 34.5599 33.26 34.5599C34.1 34.5599 35.66 34.4399 37.1 33.4799C38.48 32.5799 39.32 31.1399 39.44 29.2799C39.44 29.2199 39.5 29.0999 39.56 29.0999C39.8 28.9799 39.98 28.9199 40.22 28.7999C41.72 27.8999 42.56 26.2799 42.68 24.0599C42.68 23.8799 42.74 23.6999 42.92 23.6399C43.88 23.1599 44.54 22.5599 44.9 21.7799C45.74 20.1599 45.5 18.1199 44.3 16.9199C44.24 16.8599 44.18 16.7999 44.06 16.7399C43.94 16.6199 44.06 16.4399 44.24 16.4399C47.12 16.4999 50.48 16.5599 52.1 16.4399C56.12 16.1399 57.2 14.3999 57.2 12.6599C57.2 9.83992 54.32 8.93992 52.1 8.51992C47.6 7.67992 32.12 6.41992 26.84 6.41992ZM7.88 28.8599C7.64 28.7399 7.34 28.7399 7.1 28.7399L3.32 29.2199C2.96 29.2199 2.6 28.9799 2.6 28.6199V13.5599C2.6 13.2599 2.9 13.0799 3.2 13.0799L6.44 13.4999C6.68 13.4999 6.98 13.4999 7.22 13.3799C14.3 10.3199 21.56 8.21992 25.04 8.21992C28.04 8.21992 29.66 8.69992 31.7 10.0199C32.84 10.7999 35.3 12.5399 36.68 14.0999C37.76 15.2999 38 15.9599 37.76 16.3799C37.22 17.4599 35.48 17.6399 33.38 17.0399C29.96 16.0199 25.76 14.6399 25.1 14.3399C24.8 14.1599 24.32 14.2799 24.14 14.5799C23.54 15.4199 21.92 16.7999 19.34 18.1199C16.76 19.4399 13.94 20.2199 11.54 20.2199C11.12 20.2199 10.52 20.4599 10.52 20.8799C10.52 21.2999 11 21.7199 11.54 21.8399C13.76 22.4399 15.86 22.4999 18.86 22.1999C21.32 21.9599 22.34 23.8199 22.34 25.6199C22.34 27.4199 22.76 29.0999 23.54 30.1199C24.74 31.5599 26.48 32.5199 28.1 33.2999C28.22 33.2999 28.16 33.4799 28.1 33.4799C26 33.5999 23.72 33.5399 21.32 33.1799C16.94 32.4599 12.62 31.0799 7.88 28.8599ZM33.26 32.9399C30.8 32.9399 27.14 31.5599 25.16 29.3999C24.32 28.4999 24.38 27.5399 24.56 27.1199C24.98 25.9799 25.88 26.2199 26.6 26.6999C29.12 28.3799 33.2 29.6999 35.36 29.6999C36.08 29.6999 36.86 29.6399 37.52 29.5799C37.64 29.5799 37.76 29.6399 37.76 29.7599C37.52 30.7799 37.04 31.6199 36.2 32.1599C35.12 32.8799 33.8 32.9399 33.26 32.9399ZM35.36 28.0799C33.5 28.0799 30.26 27.1799 28.04 25.6799C26.24 24.5399 25.4 23.6999 25.4 22.6199C25.4 22.0199 25.58 21.5399 25.94 21.1199C26.24 20.8799 26.72 20.7599 27.2 21.0599C28.28 21.5999 29.6 22.3199 30.74 22.7999C32.96 23.7599 35.66 24.3599 38.72 24.3599C39.32 24.3599 39.98 24.3599 40.7 24.2399C40.88 24.2399 41 24.3599 41 24.5399C40.88 25.5599 40.52 26.6999 39.38 27.3599C38.3 27.9599 36.86 28.0799 35.36 28.0799ZM40.82 22.5599C39.2 22.8599 37.58 22.7999 36.92 22.6799C34.82 22.4399 32.96 22.0799 31.22 21.3599C30.08 20.8799 29.06 20.3399 28.4 19.7399C27.74 19.1399 27.74 18.4799 27.86 17.8799C27.98 17.5199 28.28 17.3399 28.76 17.4599C29.9 17.7599 31.58 18.2399 32.9 18.5999C34.34 18.8999 35.54 19.0799 36.62 18.8399C37.94 18.5999 38.72 18.0599 39.38 16.6199C39.56 16.1999 40.04 16.1999 40.34 16.3199C41.36 16.6799 42.38 17.2799 43.16 18.0599C44 18.8399 43.88 20.2199 43.46 21.0599C43.04 22.0199 41.78 22.3799 40.82 22.5599ZM42.74 14.7599C41.72 14.7599 40.88 14.6399 40.28 14.5199C39.5 14.3399 38.6 13.9199 38.06 13.3199C36.86 12.0599 34.94 10.6799 33.8 9.65992C33.74 9.59992 33.74 9.53992 33.68 9.47992C33.62 9.17992 33.62 8.81992 33.68 8.51992C33.68 8.39992 33.74 8.33992 33.86 8.33992C40.4 8.75992 48.8 9.53992 51.8 10.1399C55.58 10.8599 55.58 12.1199 55.58 12.6599C55.58 13.6199 55.1 14.5799 51.98 14.8199C50.18 14.9399 45.74 14.8199 42.74 14.7599Z" fill="white"/>
</svg>
