<svg xmlns="http://www.w3.org/2000/svg" viewBox="0 0 766.52 67.38">
  <defs>
    <style>
      .a {
        fill: #fff;
      }
    </style>
  </defs>
  <g>
    <path class="a" d="M47.46,5.47,45.78,17.8H33.12V61.2H16.63V17.8H3.1V5.47Z"/>
    <path class="a" d="M86,44.3H60c.43,2.89,1.32,4.82,2.68,5.81a9.91,9.91,0,0,0,5.89,1.48,12.21,12.21,0,0,0,4.56-.92,26.5,26.5,0,0,0,5.13-2.84l6.4,8.65A27.18,27.18,0,0,1,67.08,62.8q-11.38,0-17.22-6.28T44,39.9a27.25,27.25,0,0,1,2.45-11.65,19.4,19.4,0,0,1,7.24-8.33,21.12,21.12,0,0,1,11.61-3.08,22.28,22.28,0,0,1,11,2.64,18,18,0,0,1,7.33,7.69,26,26,0,0,1,2.6,12.09A47.86,47.86,0,0,1,86,44.3ZM70.68,34.78a13.67,13.67,0,0,0-1.16-5.85,4,4,0,0,0-3.89-2.08,4.55,4.55,0,0,0-4,1.84c-.88,1.23-1.45,3.44-1.72,6.65H70.68Z"/>
    <path class="a" d="M116.72,38.3l13.21,22.9H112.24l-5.61-14.73L101.51,61.2H84.45l13-22.42L85.57,18.44h17.54L107.27,31,111,18.44h16.57Z"/>
    <path class="a" d="M155.72,61.2V45.27h-8.17V61.2H131.7V18.44h15.85V33.9h8.17V18.44h15.85V61.2Z"/>
    <path class="a" d="M214.45,22.84q5.9,6,5.89,17.06A26.14,26.14,0,0,1,217.66,52,19,19,0,0,1,210,60a23.38,23.38,0,0,1-11.69,2.8q-10.26,0-16.14-6T176.3,39.74A26,26,0,0,1,179,27.65a19,19,0,0,1,7.65-8,23.36,23.36,0,0,1,11.69-2.8Q208.57,16.84,214.45,22.84Zm-20.54,8.09c-.9,1.82-1.36,4.75-1.36,8.81,0,4.22.46,7.22,1.36,9a4.94,4.94,0,0,0,8.81,0c.91-1.82,1.36-4.75,1.36-8.81q0-6.33-1.36-9a4.94,4.94,0,0,0-8.81,0Z"/>
    <path class="a" d="M262.94,18.44V61.2H247.08V29.73H242l-.56,6.09a96.19,96.19,0,0,1-2.16,14.61,15.1,15.1,0,0,1-4.53,7.69q-3.24,2.84-10,4.12L220.9,51a12.65,12.65,0,0,0,3.68-2.56,8.35,8.35,0,0,0,1.56-3.92,83.57,83.57,0,0,0,.93-9.29l1-16.82Z"/>
    <path class="a" d="M305.82,22.84q5.88,6,5.88,17.06A26,26,0,0,1,309,52a19,19,0,0,1-7.65,8,23.36,23.36,0,0,1-11.69,2.8q-10.24,0-16.13-6t-5.89-17.06a26,26,0,0,1,2.69-12.09,18.88,18.88,0,0,1,7.64-8,23.38,23.38,0,0,1,11.69-2.8Q299.94,16.84,305.82,22.84Zm-20.54,8.09c-.91,1.82-1.36,4.75-1.36,8.81q0,6.33,1.36,9a4.94,4.94,0,0,0,8.81,0c.9-1.82,1.36-4.75,1.36-8.81,0-4.22-.46-7.22-1.36-9a4.94,4.94,0,0,0-8.81,0Z"/>
    <path class="a" d="M332.28,61.2H316.43V18.44h32.35l-1.84,11.77H332.28Z"/>
    <path class="a" d="M391.46,61.2h-14.9V48.39A58.68,58.68,0,0,1,378.81,33L366.72,61.2H351.34V18.44h15V31.57A54.53,54.53,0,0,1,364.07,47L376,18.44h15.46Z"/>
    <path class="a" d="M438.3,61.2H423.41V48.39A58.64,58.64,0,0,1,425.65,33L413.56,61.2H398.18V18.44h15V31.57A54.88,54.88,0,0,1,410.92,47l11.93-28.51H438.3Z"/>
    <path class="a" d="M502.76,61.2H487.87V48.39A58.64,58.64,0,0,1,490.11,33L478,61.2H462.64V18.44h15V31.57A54.88,54.88,0,0,1,475.38,47l11.93-28.51h15.45Z"/>
    <path class="a" d="M586,18.44,576.75,38.3l9.93,22.9H570.9l-6.4-17.54h-2.72V61.2H548.24V43.66h-2.72L539,61.2H523.34l9.93-22.9L524,18.44h14.57l6.73,16.42h3V18.44h13.54V34.86h3l6.81-16.42Z"/>
    <path class="a" d="M629.76,61.2h-14.9V48.39A58.68,58.68,0,0,1,617.11,33L605,61.2H589.64V18.44h15V31.57A54.52,54.52,0,0,1,602.37,47L614.3,18.44h15.46Z"/>
    <path class="a" d="M661,18.32a14.66,14.66,0,0,1,6.24,4.2,9.54,9.54,0,0,1,2.29,6.33q0,7.29-9.85,9.61,5.93.8,8.89,3.36a9,9,0,0,1,3,7.21,11.41,11.41,0,0,1-5.57,10.25q-5.56,3.53-15.17,3.52-10.89,0-18-5L640,49.19a20,20,0,0,0,5.08,2.16,21,21,0,0,0,5.09.56q5,0,5-3.92,0-3.77-5-3.77h-7.29l.88-9.6h5.37c2.93,0,4.4-1.29,4.4-3.85a3.08,3.08,0,0,0-1-2.48,4.43,4.43,0,0,0-3-.88,14.08,14.08,0,0,0-4.33.64A19.16,19.16,0,0,0,641.13,30l-7.21-8.09q7.46-5,18-5A25.57,25.57,0,0,1,661,18.32Z"/>
    <path class="a" d="M700.22,61.2V45.27h-8.16V61.2H676.2V18.44h15.86V33.9h8.16V18.44h15.86V61.2Z"/>
    <path class="a" d="M756,35.18q5.12,3.68,5.12,11.29c0,4.7-1.69,8.32-5.08,10.89s-8,3.84-13.82,3.84H722.8V18.44h15.86v13h1.44Q750.92,31.49,756,35.18ZM744.06,50a5.74,5.74,0,0,0,1.17-3.8A5.19,5.19,0,0,0,744,42.34a5.7,5.7,0,0,0-4.12-1.24h-1.2V51.35h1.84A4.36,4.36,0,0,0,744.06,50Z"/>
  </g>
</svg>
