<svg width="32" height="32" viewBox="0 0 32 32" fill="none" xmlns="http://www.w3.org/2000/svg">
<g clip-path="url(#clip0_5298_366)">
<path fill-rule="evenodd" clip-rule="evenodd" d="M28.312 28.26C25.003 30.7 20.208 32 16.08 32C10.28 32 5.07803 29.86 1.13503 26.297C0.835029 26.017 1.10303 25.635 1.47503 25.853C5.73003 28.33 11 29.82 16.426 29.82C20.3446 29.8019 24.2209 29.0094 27.832 27.488C28.392 27.25 28.862 27.855 28.312 28.261V28.26ZM29.688 26.686C29.268 26.146 26.892 26.431 25.828 26.556C25.503 26.596 25.454 26.313 25.746 26.11C27.646 24.78 30.74 25.163 31.102 25.61C31.464 26.057 31.008 29.17 29.232 30.654C28.959 30.882 28.699 30.761 28.832 30.458C29.232 29.462 30.126 27.228 29.702 26.686" fill="#41CAFF"/>
<path fill-rule="evenodd" clip-rule="evenodd" d="M18.4302 13.864C18.4302 15.556 18.4732 16.967 17.6182 18.469C16.9182 19.689 15.8182 20.442 14.6132 20.442C12.9462 20.442 11.9692 19.172 11.9692 17.297C11.9692 13.597 15.2852 12.924 18.4312 12.924V13.864H18.4302ZM22.8112 24.448C22.5242 24.705 22.1092 24.723 21.7852 24.552C20.3452 23.355 20.0812 22.799 19.2932 21.657C16.9112 24.087 15.2192 24.814 12.1352 24.814C8.47721 24.814 5.63721 22.56 5.63721 18.047C5.63721 14.523 7.54221 12.123 10.2672 10.95C12.6242 9.912 15.9172 9.73 18.4322 9.45V8.9C18.4322 7.868 18.5122 6.646 17.9022 5.755C17.3772 4.955 16.3622 4.625 15.4652 4.625C13.8102 4.625 12.3382 5.475 11.9782 7.233C11.9052 7.633 11.6182 8.009 11.2212 8.027L7.00021 7.555C6.64621 7.475 6.25021 7.189 6.35321 6.655C7.32821 1.54 11.9452 0 16.0742 0C18.1872 0 20.9482 0.562 22.6142 2.162C24.7272 4.135 24.5262 6.767 24.5262 9.632V16.4C24.5262 18.434 25.3692 19.325 26.1632 20.425C26.4382 20.825 26.4992 21.285 26.1452 21.579C25.0244 22.5267 23.915 23.4878 22.8172 24.462L22.8112 24.45" fill="#41CAFF"/>
</g>
</svg>
