<svg width="33" height="36" viewBox="0 0 33 36" fill="none" xmlns="http://www.w3.org/2000/svg">
<path fill-rule="evenodd" clip-rule="evenodd" d="M16.3383 35.4325C16.3383 35.4325 20.2095 35.4325 20.2095 23.9739C20.2095 21.8392 18.4752 20.1027 16.3383 20.1027C14.2014 20.1027 12.4671 21.8392 12.4671 23.9739C12.4671 35.4325 16.3383 35.4325 16.3383 35.4325ZM21.0877 31.526C21.258 30.8712 21.3885 30.2098 21.4925 29.5417L21.5699 29.0108C21.7402 28.94 21.9106 28.867 22.0787 28.7896C24.7664 27.573 27.0294 25.4936 28.4717 22.9209C29.1286 21.7397 29.6131 20.4655 29.9007 19.1382C30.2325 17.6561 30.321 16.1121 30.144 14.599C29.9892 13.1833 29.6131 11.7985 29.0158 10.5C28.3301 8.97365 27.3789 7.58003 26.1843 6.40762C24.9677 5.19097 23.5298 4.19553 21.9592 3.50978C20.3444 2.77979 18.5747 2.40373 16.7829 2.35949C14.9911 2.31525 13.1993 2.60282 11.5182 3.24433C9.90333 3.86371 8.42122 4.77067 7.13821 5.94308C5.92155 7.04913 4.88187 8.39851 4.12976 9.88061C3.48825 11.1415 3.04583 12.4909 2.8025 13.8845C2.55917 15.3224 2.55917 16.8045 2.78038 18.2645C2.97947 19.5475 3.35552 20.8084 3.90855 22.0029C5.21368 24.768 7.42578 27.0686 10.1688 28.4622C10.5006 28.6171 10.8324 28.7719 11.1863 28.9268C11.2085 29.1037 11.2527 29.3028 11.2748 29.5019C11.3854 30.1434 11.5182 30.807 11.673 31.4485C11.0757 31.2495 10.4785 31.0282 9.90333 30.7628C6.74003 29.3249 4.06339 26.8474 2.40432 23.7726C1.65221 22.379 1.12131 20.8968 0.789494 19.3484C0.413437 17.6451 0.347074 15.8533 0.568284 14.1057C0.789493 12.4688 1.25403 10.8539 1.93978 9.37183C2.75826 7.62427 3.90855 6.00944 5.28005 4.66007C6.62721 3.3129 8.30841 2.18473 10.1444 1.4105C12.0601 0.605295 14.1196 0.176149 16.1901 0.149604C18.265 0.127483 20.3422 0.503539 22.2734 1.26229C24.1359 1.9967 25.8525 3.08505 27.3169 4.44771C28.7327 5.7639 29.9051 7.33228 30.7634 9.06214C31.4934 10.5221 32.0022 12.1148 32.2455 13.7297C32.5109 15.4109 32.5109 17.1363 32.2234 18.7954C31.98 20.3438 31.4713 21.8702 30.7855 23.2859C29.237 26.405 26.671 28.971 23.552 30.5195C22.7777 30.8955 21.9592 31.2273 21.1186 31.4928L21.0877 31.526ZM21.8531 25.2126L21.8663 24.5225C21.8663 24.0579 21.8663 23.5934 21.8 23.1355C21.7779 22.9585 21.7336 22.8037 21.6894 22.6267C22.5078 21.9631 23.1936 21.1225 23.7024 20.1713C24.0784 19.4634 24.366 18.6892 24.5209 17.8928C24.6978 17.008 24.7421 16.0789 24.6093 15.1498C24.4987 14.3313 24.2775 13.535 23.9457 12.7829C23.5254 11.8759 22.9503 11.0353 22.2424 10.3275C21.5124 9.61959 20.6939 9.04444 19.7648 8.62414C18.7473 8.18172 17.6412 7.91627 16.5352 7.89415C15.4291 7.87203 14.301 8.07112 13.2613 8.4693C12.3322 8.84535 11.4695 9.37626 10.7174 10.062C9.96527 10.7478 9.34588 11.5441 8.90346 12.4511C8.5274 13.1811 8.26195 13.9553 8.1071 14.7738C7.95226 15.6144 7.93014 16.4771 8.04074 17.3177C8.15135 18.1362 8.37256 18.9325 8.70437 19.6846C9.21315 20.8128 9.96527 21.8082 10.8943 22.6267L10.7616 23.224C10.6731 23.6885 10.6953 24.1309 10.6953 24.6176V25.237C9.14679 24.2858 7.86377 22.9143 7.00106 21.3216C6.49227 20.4146 6.13834 19.4413 5.93925 18.4237C5.69592 17.2956 5.65168 16.1231 5.80653 14.9729C5.93925 13.9332 6.22682 12.9156 6.64712 11.9865C7.1559 10.8362 7.90802 9.77443 8.79285 8.86747C9.69981 7.96051 10.7616 7.23052 11.9119 6.72174C13.1949 6.14659 14.5885 5.8369 15.9822 5.79266C17.3979 5.77054 18.8136 6.01387 20.1188 6.52265C21.3133 6.98719 22.3972 7.67294 23.3484 8.53566C24.2775 9.39838 25.0739 10.4159 25.649 11.5441C26.1136 12.4732 26.4675 13.4686 26.6445 14.4862C26.8214 15.548 26.8657 16.6319 26.7108 17.6937C26.5781 18.7334 26.2905 19.751 25.8481 20.7022C24.9854 22.6267 23.5033 24.2858 21.6894 25.3697L21.8531 25.2126ZM16.3383 11.1349C18.4929 11.1349 20.2404 12.8824 20.2404 15.0392C20.2404 17.2071 18.4929 18.9546 16.3383 18.9546C14.1837 18.9546 12.4362 17.2071 12.4362 15.0613C12.4362 12.9156 14.1837 11.1658 16.3383 11.1658V11.1349Z" fill="#41CAFF"/>
</svg>
