<svg width="32" height="32" viewBox="0 0 32 32" fill="none" xmlns="http://www.w3.org/2000/svg">
<path fill-rule="evenodd" clip-rule="evenodd" d="M16 0C7.16355 0 0 7.16344 0 16C0 24.8366 7.16355 32 16 32C24.8365 32 32 24.8366 32 16C32 7.16344 24.8365 0 16 0ZM15.9978 18.6549C15.4575 18.6544 14.9294 18.4936 14.4803 18.1927C14.0312 17.8918 13.6814 17.4644 13.4749 16.9645C13.2685 16.4647 13.2147 15.9147 13.3204 15.3843C13.4262 14.8538 13.6866 14.3666 14.0689 13.9843C14.4512 13.602 14.9381 13.3417 15.4682 13.2364C15.9982 13.1311 16.5475 13.1854 17.0467 13.3925C17.5459 13.5996 17.9726 13.9502 18.2727 14.4C18.5729 14.8498 18.7331 15.3786 18.7331 15.9195C18.733 16.2789 18.6621 16.6347 18.5246 16.9667C18.387 17.2987 18.1855 17.6003 17.9315 17.8543C17.6775 18.1083 17.376 18.3098 17.0442 18.4471C16.7124 18.5845 16.3569 18.6551 15.9978 18.6549ZM22.6575 25.126L19.975 21.4051C20.8365 20.7767 21.5373 19.9534 22.0203 19.0022C22.5033 18.051 22.7547 16.999 22.7541 15.9321C22.7541 12.1882 19.7193 9.15328 15.9756 9.15328C12.2318 9.15328 9.19668 12.1871 9.19668 15.9306C9.19607 17.0023 9.44971 18.0587 9.93674 19.013C10.4238 19.9674 11.1302 20.7923 11.998 21.4199L9.3134 25.1436C6.45962 23.08 4.60283 19.7201 4.60283 15.9281C4.60283 9.64868 9.69302 4.55813 15.9723 4.55813C22.2517 4.55813 27.3422 9.64868 27.3422 15.9281C27.3422 19.7086 25.4966 23.0574 22.6575 25.1245V25.126Z" fill="#41CAFF"/>
</svg>
