<svg width="28" height="32" viewBox="0 0 28 32" fill="none" xmlns="http://www.w3.org/2000/svg">
<path fill-rule="evenodd" clip-rule="evenodd" d="M0.00710986 9.3064V15.999L0.00011006 22.6516C-0.00788947 23.6936 0.420085 24.4395 1.31703 24.9665L12.5384 31.6026C13.4383 32.1426 14.2903 32.1256 15.1902 31.5926L26.4396 24.928C27.3015 24.42 27.7115 23.6701 27.7115 22.6851L27.7105 9.2894C27.7095 8.30196 27.2845 7.5585 26.4256 7.05203L15.2127 0.415919C14.2743 -0.141548 13.4073 -0.137048 12.4744 0.419919L1.30953 7.03453C0.432085 7.5565 0.000610238 8.28346 0.00710986 9.3064ZM16.3576 19.7541C16.577 19.5784 16.7074 19.2942 16.7106 18.9343L16.7131 15.9095L16.7105 15.9099L16.7075 12.8412C16.7068 12.7792 16.7023 12.7196 16.6942 12.6625C16.6286 12.1858 16.3093 11.8846 15.8467 11.8497C15.2437 11.7998 14.8067 12.1827 14.7907 12.7997L14.7827 14.8146C14.7747 15.2495 14.4908 15.476 14.0978 15.3895C13.9201 15.3506 13.8139 15.2634 13.7547 15.143C13.7069 15.0445 13.69 14.9242 13.6907 14.7906L13.6937 12.1207C13.695 11.9245 13.6677 11.7438 13.5937 11.5863C13.5257 11.4398 13.4177 11.3133 13.2553 11.2133C12.5714 10.7923 11.7784 11.2233 11.7564 12.0432L11.7494 14.2096C11.7444 14.6066 11.5644 14.7966 11.2264 14.8086C10.9355 14.8185 10.732 14.6755 10.6581 14.3957C10.6436 14.3398 10.6342 14.2786 10.6304 14.2121L10.6254 13.4622C10.62 13.2913 10.5807 13.1439 10.5096 13.02C10.4078 12.8379 10.2403 12.7062 10.0115 12.6287C9.36156 12.4007 8.7341 12.8327 8.7216 13.5316L8.7136 15.4465C8.7056 15.7945 8.50011 15.985 8.18463 15.9945C7.98421 16.0007 7.82932 15.9353 7.72944 15.8042C7.66945 15.7238 7.62937 15.6191 7.61055 15.4915C7.60361 15.4406 7.6038 15.3885 7.604 15.3365C7.60419 15.2873 7.60438 15.2381 7.59855 15.1901C7.59337 15.1471 7.58554 15.1051 7.57526 15.0642C7.46755 14.6284 7.08198 14.3111 6.64772 14.3166C6.16775 14.3216 5.71277 14.7016 5.70077 15.1896L5.70177 18.2119C5.70529 18.342 5.73861 18.4636 5.7944 18.5722C5.95258 18.8812 6.29328 19.0894 6.6466 19.0883C7.13158 19.0873 7.53405 18.7208 7.59655 18.2184C7.6018 18.1747 7.5996 18.1271 7.59743 18.0801C7.59382 18.0016 7.59029 17.925 7.62155 17.8719L7.62739 17.8629C7.73686 17.695 7.87201 17.4875 8.03902 17.4384C8.18651 17.3914 8.44 17.4859 8.56399 17.6049C8.61328 17.6524 8.64725 17.7234 8.66998 17.8028C8.69745 17.9003 8.70823 18.0103 8.7096 18.1054L8.7196 21.0772C8.72115 21.1896 8.74044 21.2953 8.77431 21.3924C8.95751 21.9234 9.57459 22.2011 10.1164 21.9277C10.4804 21.7437 10.6334 21.4397 10.6294 21.0237L10.6254 17.0939C10.6264 16.483 10.8089 16.21 11.2063 16.215C11.3907 16.2174 11.5243 16.2771 11.6137 16.4034C11.71 16.5409 11.7554 16.7561 11.7554 17.0604L11.7559 17.3741L11.7538 18.8268C11.7658 19.4378 12.1468 19.8313 12.7057 19.8378C12.8998 19.84 13.0734 19.7947 13.2188 19.7096C13.5073 19.544 13.6855 19.2224 13.6928 18.7993L13.6968 17.4394C13.7013 17.2101 13.7667 17.0382 13.8822 16.9321C13.9737 16.8502 14.0959 16.8086 14.2437 16.811C14.5821 16.8165 14.7801 17.0424 14.7851 17.4534L14.7916 19.0148C14.8151 19.5803 15.2236 19.9653 15.7651 19.9563C15.9992 19.9527 16.2013 19.8812 16.3576 19.7541ZM19.7509 15.267L19.7524 16.9779L19.7529 16.9794L19.7519 18.6903C19.7484 18.9333 19.6856 19.1416 19.5741 19.3044C19.4164 19.5367 19.1608 19.6777 18.8394 19.6963C18.3124 19.7263 17.8494 19.3573 17.8354 18.7953L17.8289 15.1731C17.8298 15.1356 17.8324 15.0992 17.8367 15.0638C17.8915 14.5513 18.3029 14.261 18.8375 14.2821C19.383 14.3031 19.744 14.6856 19.7509 15.267ZM20.8728 17.4533L20.8728 17.4589L20.8734 17.4596L20.8735 17.5147C20.8733 17.543 20.8729 17.5714 20.8725 17.5998C20.8712 17.6978 20.8699 17.7959 20.8744 17.8934L20.8744 17.9059C20.8761 17.9407 20.8792 17.9747 20.8838 18.008C20.9453 18.4724 21.2864 18.7886 21.7622 18.8148C22.3007 18.8443 22.7272 18.5174 22.7782 17.9909C22.8122 17.6379 22.8102 17.2859 22.7772 16.938C22.7746 16.911 22.771 16.8846 22.7664 16.8586C22.6831 16.3792 22.2519 16.0615 21.7663 16.091C21.2689 16.121 20.9034 16.492 20.8734 17.0009C20.8673 17.103 20.869 17.2057 20.8707 17.3083C20.8716 17.3565 20.8724 17.4048 20.8724 17.4529L20.8728 17.4533Z" fill="#41CAFF"/>
</svg>
