<svg width="32" height="32" viewBox="0 0 32 32" fill="none" xmlns="http://www.w3.org/2000/svg">
<path d="M16 0C7.1632 0 0 7.1632 0 16C0 24.8368 7.1632 32 16 32C24.8368 32 32 24.8368 32 16C32 7.1632 24.8368 0 16 0ZM15.92 25.6C10.6208 25.6 6.32 21.2992 6.32 16C6.32 10.7008 10.6208 6.4 15.92 6.4C18.512 6.4 20.6816 7.3504 22.3424 8.9056L19.616 11.5552C18.9248 10.9024 17.7152 10.1344 15.92 10.1344C12.7424 10.1344 10.1504 12.7744 10.1504 16.0096C10.1504 19.2448 12.7424 21.8848 15.92 21.8848C19.5968 21.8848 20.9504 19.3408 21.2 17.8336H15.9104V17.824V14.2528H24.896C25.0304 14.8576 25.136 15.424 25.136 16.2208C25.136 21.7024 21.4592 25.6 15.92 25.6Z" fill="#41CAFF"/>
</svg>
