<svg width="32" height="32" viewBox="0 0 32 32" fill="none" xmlns="http://www.w3.org/2000/svg">
<path d="M32 16.0289C31.9943 19.1943 31.0498 22.2869 29.286 24.9153C27.5222 27.5438 25.0184 29.5901 22.0913 30.7952C19.1643 32.0002 15.9455 32.31 12.8424 31.6853C9.73922 31.0606 6.89108 29.5295 4.65834 27.2857C2.4256 25.0419 0.908586 22.1862 0.29925 19.08C-0.310087 15.9738 0.0156347 12.7566 1.2352 9.83555C2.45477 6.9145 4.51337 4.42084 7.15055 2.67007C9.78772 0.919309 12.8849 -0.00987874 16.0504 7.92071e-05C20.2854 0.0285344 24.3377 1.72892 27.3249 4.731C30.3122 7.73308 31.9925 11.7938 32 16.0289ZM20.5324 29.8202C23.829 28.7349 26.6311 26.5104 28.4359 23.5458C30.2407 20.5813 30.9302 17.0706 30.3806 13.6437C29.8309 10.2167 28.0783 7.09773 25.4369 4.84624C22.7955 2.59474 19.4384 1.35807 15.9676 1.35807C12.4969 1.35807 9.1397 2.59474 6.49834 4.84624C3.85698 7.09773 2.10428 10.2167 1.55467 13.6437C1.00506 17.0706 1.6945 20.5813 3.49931 23.5458C5.30412 26.5104 8.1062 28.7349 11.4029 29.8202C12.6331 26.1224 13.9568 22.2519 15.1367 18.7123C14.4598 18.3518 13.893 17.8148 13.4964 17.1584C13.1837 16.5172 13.1384 15.7782 13.3704 15.1036C13.6025 14.4291 14.0929 13.8743 14.7338 13.5612C15.1022 13.3736 15.5081 13.2716 15.9214 13.2626C16.3347 13.2537 16.7447 13.3381 17.1209 13.5096C17.497 13.6811 17.8296 13.9352 18.094 14.2531C18.3583 14.5709 18.5475 14.9443 18.6475 15.3454C19 16.6116 18.4676 17.6476 17.295 18.4246C17.1223 18.554 17.0647 18.59 16.9137 18.6907C16.9137 18.8778 17.964 21.813 18.3885 23.1296C19.1007 25.3382 19.8057 27.554 20.5324 29.8202ZM15.9568 26.885C16.3612 26.3397 16.7359 25.7729 17.0791 25.1871C17.2177 24.8825 17.2457 24.539 17.1583 24.2159C16.9496 23.4965 16.6547 22.7771 16.3885 22.1152C16.2806 21.8418 16.1511 21.5828 15.9568 21.1512C15.4748 22.403 15.0575 23.4605 14.6762 24.5325C14.6243 24.7129 14.6449 24.9066 14.7338 25.072C15.1295 25.6835 15.5324 26.2519 15.9568 26.885ZM19.295 30.2159L19.482 30.0433L17.9928 26.1512L16.7914 27.8778L19.295 30.2159ZM12.4748 30.0576L12.6691 30.1871L15.0791 27.9497L13.8705 26.3886L12.4748 30.0576ZM17.7266 30.4677C17.1223 29.9282 16.6619 29.4893 16.1655 29.0864C16.0893 29.0449 16.004 29.0231 15.9173 29.0231C15.8305 29.0231 15.7452 29.0449 15.6691 29.0864C15.1798 29.4893 14.7266 29.9353 14.1223 30.5253L17.7266 30.4677Z" fill="#41CAFF"/>
<path d="M23.1006 8.89941L23.9927 8.00732C28.525 12.0145 28.6402 19.8275 23.9927 24.0073L23.1078 23.1009C24.9545 21.1985 25.9875 18.6515 25.9875 16.0001C25.9875 13.3488 24.9545 10.8018 23.1078 8.89941H23.1006Z" fill="#41CAFF"/>
<path d="M8.83478 23.1009L7.94988 24.0001C3.30959 19.8275 3.4247 12.0217 7.94988 8.00732L8.84197 8.89941C6.99689 10.8027 5.96509 13.3493 5.96509 16.0001C5.96509 18.6509 6.99689 21.1976 8.84197 23.1009H8.83478Z" fill="#41CAFF"/>
<path d="M11.0218 11.0576L11.9714 12.1224C11.4442 12.6078 11.0314 13.2042 10.7626 13.8686C10.4939 14.5329 10.376 15.2486 10.4175 15.9641C10.3628 16.6945 10.4786 17.4275 10.7558 18.1055C11.033 18.7834 11.4639 19.3877 12.0146 19.8706L10.9714 20.8706C8.25918 18.0648 8.17284 14.1008 11.0218 11.0576Z" fill="#41CAFF"/>
<path d="M20.9925 11.0864C23.8702 14.3526 23.5537 18.1943 20.9565 20.9138L19.9853 19.8778C20.5167 19.3953 20.9328 18.7995 21.203 18.1346C21.4732 17.4696 21.5906 16.7525 21.5465 16.0361C21.6026 15.3052 21.4882 14.5712 21.2123 13.8921C20.9364 13.2129 20.5065 12.6071 19.9565 12.1224L20.9925 11.0864Z" fill="#41CAFF"/>
</svg>
