<svg width="32" height="32" viewBox="0 0 32 32" fill="none" xmlns="http://www.w3.org/2000/svg">
<path d="M16 0C7.16357 0 0 7.16357 0 16C0 24.8364 7.16357 32 16 32C24.8364 32 32 24.8364 32 16C32 7.16357 24.8364 0 16 0ZM22.5212 16.0306H20.2403C20.1753 14.5209 19.5602 13.3185 18.3027 12.4829C17.4354 11.906 16.4645 11.7062 15.446 11.8449C13.2546 12.1429 11.841 14.0002 11.8028 15.9421C11.763 17.9643 13.3174 20.1524 16 20.2539C16.0671 20.4772 16.077 22.191 16.0131 22.5059C14.2666 22.6194 11.674 21.6326 10.3139 19.1798C8.95378 16.727 9.28671 13.8294 11.06 11.7734C12.9992 9.52304 16.0475 8.91175 18.6045 10.0334C21.3166 11.2237 22.5686 13.8419 22.5212 16.0306ZM26.9088 16.006H23.9408C23.8556 13.247 22.7133 11.048 20.4592 9.47065C18.9691 8.42872 17.2843 7.9899 15.4755 8.11707C13.4458 8.25265 11.5467 9.1663 10.174 10.6676C8.80131 12.1689 8.06097 14.142 8.10725 16.1757C8.18202 20.0378 11.197 23.7912 15.9787 23.9446C16.0393 24.1662 16.0518 26.5382 15.9885 26.9208C14.5264 26.9224 13.0794 26.6252 11.7362 26.0476C9.5607 25.1082 7.85018 23.622 6.63797 21.5857C5.44403 19.5823 4.92348 17.249 5.15267 14.9281C5.38185 12.6071 6.34871 10.4207 7.91144 8.68954C9.47416 6.95833 11.5505 5.77344 13.8359 5.30864C16.1213 4.84385 18.4956 5.12361 20.6103 6.10691C25.2076 8.25243 27.0011 12.7149 26.9088 16.006Z" fill="#41CAFF"/>
</svg>
