<svg width="32" height="33" viewBox="0 0 32 33" fill="none" xmlns="http://www.w3.org/2000/svg">
<path d="M31.9973 16.0419C32.1344 24.7593 24.7809 32.055 15.9698 32.0261C11.7273 31.9881 7.67106 30.2786 4.68125 27.2685C1.69143 24.2584 0.00932968 20.1907 0 15.9481C0.0436828 11.707 1.75771 7.65405 4.77029 4.66848C7.78288 1.68292 11.8511 0.00547326 16.0924 0C24.7665 0.0288654 32.1632 7.24521 31.9973 16.0419ZM25.5026 23.7418C25.5386 13.776 16.8429 6.56687 8.59466 6.86274V10.2111C10.3696 10.2087 12.1273 10.5597 13.7652 11.2436C15.4031 11.9275 16.8885 12.9306 18.1347 14.1945C20.6655 16.7402 22.1224 20.1603 22.2047 23.749L25.5026 23.7418ZM8.53693 15.9193C13.2709 16.5182 15.8543 19.1233 16.4316 23.7418H19.7223C19.8449 17.5862 14.0286 12.2678 8.55858 12.7585V15.9265L8.53693 15.9193ZM13.0832 21.5336C13.1106 21.2211 13.0729 20.9063 12.9727 20.6091C12.8725 20.3118 12.7118 20.0385 12.5008 19.8064C12.2898 19.5743 12.033 19.3884 11.7466 19.2603C11.4603 19.1323 11.1505 19.0649 10.8368 19.0624C10.5231 19.0599 10.2123 19.1223 9.92398 19.2458C9.63561 19.3693 9.37592 19.5511 9.16125 19.7798C8.94658 20.0086 8.78157 20.2792 8.67661 20.5748C8.57165 20.8705 8.52901 21.1846 8.55137 21.4975C8.53833 21.8076 8.59102 22.1169 8.70598 22.4052C8.82094 22.6935 8.99558 22.9542 9.21843 23.1703C9.44127 23.3863 9.70729 23.5527 9.99901 23.6587C10.2907 23.7647 10.6016 23.8077 10.9111 23.7851C11.2026 23.7823 11.4907 23.7216 11.7585 23.6066C12.0264 23.4915 12.2688 23.3244 12.4715 23.115C12.6743 22.9055 12.8334 22.6578 12.9396 22.3864C13.0459 22.1149 13.0971 21.825 13.0904 21.5336H13.0832Z" fill="#41CAFF"/>
</svg>
