<svg width="32" height="32" viewBox="0 0 32 32" fill="none" xmlns="http://www.w3.org/2000/svg">
<path d="M16 0C7.1632 0 0 7.1632 0 16C0 24.8368 7.1632 32 16 32C24.8368 32 32 24.8368 32 16C32 7.1632 24.8368 0 16 0ZM23.3376 23.0784C23.0496 23.5504 22.4368 23.6976 21.9664 23.4096C18.2096 21.1136 13.48 20.5936 7.9104 21.8672C7.3744 21.9904 6.8384 21.6544 6.7168 21.1168C6.5936 20.5808 6.928 20.0448 7.4672 19.9232C13.5616 18.5296 18.7904 19.1296 23.008 21.7072C23.4768 21.9936 23.6256 22.608 23.3376 23.0784ZM25.296 18.72C24.9344 19.3072 24.1664 19.4912 23.5808 19.1312C19.2816 16.488 12.7248 15.7216 7.6368 17.2656C6.976 17.4672 6.28 17.0944 6.08 16.4368C5.88 15.776 6.2528 15.08 6.912 14.88C12.7232 13.1168 19.9472 13.9712 24.8864 17.0048C25.472 17.3664 25.656 18.136 25.296 18.72ZM25.464 14.184C20.3072 11.1216 11.8 10.84 6.8752 12.3344C6.0864 12.5744 5.2496 12.128 5.0096 11.3376C4.7712 10.5456 5.216 9.7104 6.008 9.4704C11.6592 7.7552 21.0544 8.0864 26.992 11.6112C27.704 12.0336 27.936 12.952 27.5152 13.6624C27.0928 14.3728 26.1744 14.6064 25.464 14.184Z" fill="#41CAFF"/>
</svg>
