<svg width="28" height="34" viewBox="0 0 28 34" fill="none" xmlns="http://www.w3.org/2000/svg">
<path d="M20.3765 19.2055C20.3765 19.643 20.3034 21.3631 20.2366 21.7813C20.1055 22.569 19.8227 23.3238 19.4038 24.0038C19.0027 24.6723 18.4936 25.2697 17.8971 25.7719C16.646 26.8151 15.0642 27.3786 13.4353 27.3612C12.2001 27.3461 10.9913 27.001 9.93438 26.3616C9.60125 26.153 9.28524 25.9182 8.98932 25.6595C8.39316 25.1346 7.89073 24.512 7.50357 23.8184C7.09728 23.095 6.83007 22.3019 6.71577 21.4801C6.54054 20.2741 6.68996 19.0432 7.14863 17.9141C7.60729 16.7851 8.35864 15.7987 9.32527 15.0566C9.94413 14.5787 10.6407 14.211 11.3844 13.9696C12.9975 13.4432 14.7483 13.5324 16.2996 14.2198C16.4849 14.3015 16.6672 14.3914 16.8433 14.4909C17.0195 14.5905 17.1926 14.71 17.3631 14.8264C17.7006 15.0518 18.0163 15.3082 18.3061 15.5922C18.444 15.7291 18.5762 15.8715 18.7044 16.0175C18.7677 16.0895 18.83 16.1625 18.8912 16.2355C18.9479 16.314 19.0133 16.3858 19.0863 16.4495C19.0628 16.2891 19.049 16.1288 19.0204 15.9695C18.9921 15.804 18.9762 15.6366 18.9729 15.4687C18.9627 15.1276 18.9867 0.270681 18.9867 0.182354C18.9867 0.131297 18.9714 0.048075 19.0005 0.000592505C19.0296 -0.04689 27.8935 2.775 27.8935 2.88988C27.8935 3.06296 27.8894 8.25081 27.8894 8.59901C27.8967 8.66277 27.8934 8.72728 27.8797 8.78997C27.8761 8.79967 27.8659 8.83183 27.8562 8.83592C27.8465 8.84 27.8082 8.82111 27.7975 8.81754C27.7521 8.80375 20.4296 6.54859 20.4102 6.54603C20.3907 6.54348 20.3851 6.54603 20.3749 6.57258C20.3647 6.59913 20.378 18.3248 20.3765 19.2055Z" fill="#41CAFF"/>
<path d="M21.748 9.48412V11.2634C21.9216 11.4183 22.0918 11.5783 22.2586 11.7434C24.3733 13.8626 25.6345 16.6858 25.8017 19.6749C25.9689 22.6641 25.0305 25.6103 23.1653 27.9522C21.3 30.294 18.6384 31.8677 15.6876 32.3735C12.7368 32.8792 9.703 32.2816 7.16442 30.6945C4.62584 29.1075 2.7599 26.6419 1.92217 23.7676C1.08444 20.8934 1.33349 17.8114 2.62186 15.1089C3.91022 12.4064 6.14784 10.2724 8.90832 9.11358C11.6688 7.95472 14.7591 7.85199 17.5905 8.82498V7.37548C16.2997 6.98156 14.9576 6.78179 13.6081 6.78272C6.09308 6.78272 0 12.8753 0 20.3913C0 27.9073 6.09308 33.9999 13.6081 33.9999C21.1231 33.9999 27.2172 27.9073 27.2172 20.3913C27.219 18.2727 26.7254 16.1831 25.7758 14.2893C24.8261 12.3955 23.4468 10.7499 21.748 9.48412Z" fill="#41CAFF"/>
</svg>
