<svg width="77" height="54" viewBox="0 0 77 54" fill="none" xmlns="http://www.w3.org/2000/svg">
<path d="M32.0834 36.4873L48.7346 27L32.0834 17.5127V36.4873ZM69.1717 11.7254C69.5888 13.2118 69.8775 15.2041 70.07 17.7341C70.2946 20.264 70.3909 22.4461 70.3909 24.3436L70.5834 27C70.5834 33.9258 70.07 39.0173 69.1717 42.2746C68.3696 45.1208 66.5088 46.955 63.6213 47.7456C62.1134 48.1567 59.3542 48.4414 55.1192 48.6311C50.9484 48.8525 47.1304 48.9474 43.6013 48.9474L38.5 49.1371C25.0571 49.1371 16.6834 48.6311 13.3788 47.7456C10.4913 46.955 8.63044 45.1208 7.82835 42.2746C7.41127 40.7883 7.12252 38.7959 6.93002 36.266C6.70544 33.736 6.60919 31.5539 6.60919 29.6565L6.41669 27C6.41669 20.0743 6.93002 14.9827 7.82835 11.7254C8.63044 8.87922 10.4913 7.045 13.3788 6.25439C14.8867 5.84327 17.6459 5.55865 21.8809 5.36891C26.0517 5.14753 29.8696 5.05266 33.3988 5.05266L38.5 4.86292C51.9429 4.86292 60.3167 5.36891 63.6213 6.25439C66.5088 7.045 68.3696 8.87922 69.1717 11.7254Z" fill="#FF0000"/>
</svg>
